<svg width="35" height="43" viewBox="0 0 35 43" fill="none" xmlns="http://www.w3.org/2000/svg">
<path d="M9.10884 22.1877L12.2123 25.2911C11.9867 25.4258 11.7295 25.4978 11.4668 25.4988C11.088 25.5007 10.7242 25.3509 10.4564 25.0832L9.31683 23.9435C9.08968 23.717 8.94538 23.4204 8.90763 23.1018C8.86987 22.7832 8.94088 22.4612 9.10884 22.1877ZM14.9925 16.2464L18.1529 19.4068L19.407 18.1526L16.2467 14.9923L14.9925 16.2464ZM25.0832 10.4562L23.9435 9.31655C23.717 9.0894 23.4204 8.9451 23.1018 8.90735C22.7832 8.86959 22.4613 8.94062 22.1878 9.10859L25.2912 12.212C25.4592 11.9385 25.5302 11.6166 25.4924 11.298C25.4547 10.9793 25.3103 10.6827 25.0832 10.4562ZM20.1532 9.10663C19.7498 8.70382 19.2033 8.47763 18.6332 8.47763C18.063 8.47763 17.5166 8.70382 17.1131 9.10663L16.2733 9.94648C15.8705 10.3499 15.6443 10.8964 15.6443 11.4665C15.6443 12.0367 15.8705 12.5831 16.2733 12.9866L21.4131 18.1264C21.8165 18.5289 22.3634 18.7551 22.9332 18.7551C23.503 18.7551 24.0498 18.5289 24.4532 18.1264L25.2931 17.2866C25.6959 16.8831 25.9221 16.3367 25.9221 15.7665C25.9221 15.1964 25.6959 14.6499 25.2931 14.2465L20.1532 9.10663ZM12.9866 16.2733C12.5832 15.8705 12.0367 15.6443 11.4665 15.6443C10.8964 15.6443 10.3499 15.8705 9.94648 16.2733L9.10663 17.1131C8.70382 17.5166 8.47763 18.063 8.47763 18.6332C8.47763 19.2033 8.70382 19.7498 9.10663 20.1532L14.2465 25.2931C14.6499 25.6956 15.1967 25.9218 15.7665 25.9218C16.3363 25.9218 16.8831 25.6956 17.2866 25.2931L18.1264 24.4532C18.5292 24.0498 18.7554 23.5033 18.7554 22.9332C18.7554 22.363 18.5292 21.8166 18.1264 21.4131L12.9866 16.2733ZM34.3997 17.1998C34.3997 30.3102 18.3112 42.3535 17.6257 42.8596C17.3726 43.0468 17.0271 43.0468 16.774 42.8596C16.0887 42.3535 0 30.311 0 17.1998C0 12.6381 1.81214 8.26318 5.03778 5.03778C8.26342 1.81214 12.6383 0 17.1998 0C21.7613 0 26.1364 1.81214 29.3618 5.03778C32.5874 8.26342 34.3997 12.6383 34.3997 17.1998ZM30.0997 17.1998C30.0997 13.7784 28.7406 10.4974 26.3216 8.07807C23.9022 5.65903 20.6212 4.2999 17.1999 4.2999C13.7785 4.2999 10.4975 5.65903 8.07816 8.07807C5.65911 10.4974 4.29998 13.7785 4.29998 17.1998C4.29998 20.6211 5.65911 23.9022 8.07816 26.3215C10.4975 28.7405 13.7785 30.0996 17.1999 30.0996C20.62 30.0958 23.8987 28.7354 26.3175 26.317C28.7362 23.8985 30.0959 20.6202 30.0997 17.1998Z" fill="#AE0F0F"/>
</svg>
